<?xml version="1.0" standalone="no"?>
<!DOCTYPE svg PUBLIC "-//W3C//DTD SVG 20010904//EN"
 "http://www.w3.org/TR/2001/REC-SVG-20010904/DTD/svg10.dtd">
<svg version="1.0" xmlns="http://www.w3.org/2000/svg"
 width="201.000000pt" height="79.000000pt" viewBox="0 0 201.000000 79.000000"
 preserveAspectRatio="xMidYMid meet">
<metadata>
Created by potrace 1.16, written by Peter Selinger 2001-2019
</metadata>
<g transform="translate(0.000000,79.000000) scale(0.100000,-0.100000)"
fill="#000000" stroke="none">
<path d="M278 716 c-63 -17 -112 -52 -139 -99 -18 -34 -21 -50 -17 -117 4 -68
11 -91 51 -172 40 -83 46 -89 46 -60 1 19 14 64 31 102 29 66 29 69 15 116 -8
27 -15 62 -15 77 0 32 26 87 40 87 11 0 25 -30 34 -72 4 -16 13 -28 21 -28 12
0 15 17 15 90 0 101 3 99 -82 76z"/>
<path d="M422 614 c3 -119 3 -119 28 -119 17 0 26 7 30 25 9 40 37 37 49 -4 7
-26 5 -53 -7 -101 -15 -65 -15 -66 11 -123 15 -31 28 -70 29 -87 3 -30 3 -30
33 20 l30 50 3 -33 c2 -24 -2 -38 -15 -48 -16 -12 -7 -13 70 -14 94 0 95 0 78
60 l-7 25 -7 -27 c-8 -29 -40 -53 -57 -43 -14 9 -12 119 2 133 9 9 7 12 -9 12
l-21 0 20 58 c13 35 21 82 22 123 0 56 -4 73 -26 107 -34 51 -111 90 -196 98
l-63 7 3 -119z"/>
<path d="M340 489 c0 -23 -8 -63 -17 -90 -21 -58 -15 -68 54 -80 39 -7 57 -18
95 -59 48 -50 68 -61 68 -37 0 22 -16 38 -33 31 -10 -3 -17 -1 -17 5 0 6 7 11
15 11 14 0 14 3 0 30 -19 37 -19 59 1 126 11 40 13 62 6 82 -6 15 -11 20 -11
11 -2 -27 -34 -47 -89 -55 l-52 -7 0 31 c0 17 -4 34 -10 37 -6 4 -10 -10 -10
-36z"/>
<path d="M971 516 c-6 -7 -9 -39 -8 -71 l2 -59 41 -4 c48 -4 67 13 62 54 -2
21 -11 30 -37 39 -36 12 -49 29 -32 39 6 4 19 -2 31 -14 25 -25 30 -25 31 -2
0 9 7 -1 15 -23 30 -79 45 -107 52 -101 4 4 15 28 24 54 13 36 17 41 17 22 1
-14 8 -36 17 -48 13 -19 23 -22 65 -20 45 3 49 5 49 29 0 14 5 30 12 37 9 9 9
12 0 12 -7 0 -12 14 -12 33 l0 32 -81 2 c-62 2 -79 0 -71 -10 6 -8 5 -25 -1
-47 l-9 -35 -14 39 c-11 32 -12 41 -2 48 7 4 -22 7 -64 7 -48 -1 -81 -6 -87
-13z"/>
<path d="M795 315 c-42 -41 -30 -116 22 -136 36 -13 79 5 91 39 l9 27 14 -30
c14 -28 18 -30 72 -30 55 0 57 1 57 27 0 15 5 30 10 33 6 3 10 -2 10 -13 0
-23 27 -48 61 -57 36 -9 78 28 86 77 4 30 1 41 -20 62 -15 15 -37 26 -52 26
-26 0 -75 -39 -75 -60 0 -5 -4 -10 -10 -10 -5 0 -10 16 -10 36 0 30 -2 34 -14
25 -10 -8 -16 -9 -21 -1 -13 20 -53 10 -79 -21 l-26 -30 -11 24 c-20 43 -78
49 -114 12z"/>
<path d="M1290 330 c0 -5 7 -10 15 -10 12 0 15 -14 15 -65 0 -51 -3 -65 -15
-65 -8 0 -15 -5 -15 -11 0 -7 10 -9 24 -5 14 3 155 6 315 6 l291 1 -1 42 c-1
23 -4 32 -6 20 -5 -25 -18 -38 -50 -47 -20 -7 -23 -4 -23 23 0 35 7 39 26 14
12 -16 13 -12 13 32 0 43 -2 47 -11 28 -6 -13 -15 -23 -20 -23 -12 0 -10 48 3
55 12 8 49 -23 49 -42 0 -7 5 -13 10 -13 6 0 10 16 10 35 l0 35 -75 0 c-43 0
-75 -4 -75 -10 0 -5 6 -10 13 -10 13 0 18 -113 5 -126 -5 -4 -8 0 -8 9 0 8 -4
17 -9 19 -13 4 -15 29 -6 62 11 40 -13 56 -87 56 -54 0 -76 -11 -44 -23 10 -4
13 -19 9 -59 -3 -29 -8 -57 -13 -62 -10 -10 -24 30 -15 43 3 5 1 12 -5 16 -5
3 -10 -3 -10 -14 0 -20 -34 -51 -57 -51 -8 0 -13 12 -13 30 0 33 14 39 29 13
8 -14 10 -7 10 32 0 40 -2 45 -9 28 -12 -30 -30 -29 -30 1 0 46 34 45 63 -2
l16 -27 1 38 0 37 -110 0 c-67 0 -110 -4 -110 -10 0 -5 5 -10 10 -10 6 0 10
-11 10 -25 0 -20 -5 -25 -25 -25 -20 0 -25 5 -25 25 0 14 5 25 10 25 6 0 10 5
10 10 0 6 -20 10 -45 10 -25 0 -45 -4 -45 -10z"/>
<path d="M260 174 c0 -11 81 -114 106 -133 41 -32 63 -26 121 34 56 58 69 84
31 64 -32 -17 -154 -6 -210 19 -27 11 -48 19 -48 16z"/>
</g>
</svg>
